0
SECTION
2
HEADER
9
$ACADVER
1
AC1009
9
$TEXTSIZE
40
-200.000000
9
$DIMTXT
40
-200.000000
9
$DIMASZ
40
-200.000000
9
$DIMDEC
70
2
9
$DIMADEC
70
2
0
ENDSEC
0
SECTION
2
TABLES
0
TABLE
2
LAYER
70
1
0
LAYER
2
0
70
0
62
7
6
CONTINUOUS
0
ENDTAB
0
ENDSEC
0
SECTION
2
BLOCKS
0
BLOCK
2
*D0
70
1
62
7
10
0
20
0
30
0
0
ENDBLK
0
ENDSEC
0
SECTION
2
ENTITIES
0
POLYLINE
8
0
66
1
10
0
20
0
30
0
70
8
0
VERTEX
8
0
10
0
20
0
30
0
70
32
0
VERTEX
8
0
10
4710.629921
20
0
30
0
70
32
0
VERTEX
8
0
10
4710.629921
20
3135.826772
30
0
70
32
0
VERTEX
8
0
10
0
20
3135.826772
30
0
70
32
0
VERTEX
8
0
10
0
20
0
30
0
70
32
0
SEQEND
0
POLYLINE
8
0
66
1
10
0
20
0
30
0
70
8
0
VERTEX
8
0
10
0
20
0
30
0
70
32
0
VERTEX
8
0
10
4710.629921
20
0
30
0
70
32
0
VERTEX
8
0
10
4781.889764
20
-71.259843
30
2214.566929
70
32
0
VERTEX
8
0
10
-71.259843
20
-71.259843
30
2214.566929
70
32
0
VERTEX
8
0
10
0
20
0
30
0
70
32
0
SEQEND
0
POLYLINE
8
0
66
1
10
0
20
0
30
0
70
8
0
VERTEX
8
0
10
0
20
3135.826772
30
0
70
32
0
VERTEX
8
0
10
4710.629921
20
3135.826772
30
0
70
32
0
VERTEX
8
0
10
4781.889764
20
3207.086614
30
2214.566929
70
32
0
VERTEX
8
0
10
-71.259843
20
3207.086614
30
2214.566929
70
32
0
VERTEX
8
0
10
0
20
3135.826772
30
0
70
32
0
SEQEND
0
POLYLINE
8
0
66
1
10
0
20
0
30
0
70
8
0
VERTEX
8
0
10
0
20
0
30
0
70
32
0
VERTEX
8
0
10
-71.259843
20
-71.259843
30
2214.566929
70
32
0
VERTEX
8
0
10
-71.259843
20
3207.086614
30
2214.566929
70
32
0
VERTEX
8
0
10
0
20
3135.826772
30
0
70
32
0
VERTEX
8
0
10
0
20
0
30
0
70
32
0
SEQEND
0
POLYLINE
8
0
66
1
10
0
20
0
30
0
70
8
0
VERTEX
8
0
10
4710.629921
20
0
30
0
70
32
0
VERTEX
8
0
10
4781.889764
20
-71.259843
30
2214.566929
70
32
0
VERTEX
8
0
10
4781.889764
20
3207.086614
30
2214.566929
70
32
0
VERTEX
8
0
10
4710.629921
20
3135.826772
30
0
70
32
0
VERTEX
8
0
10
4710.629921
20
0
30
0
70
32
0
SEQEND
0
POLYLINE
8
0
66
1
10
0
20
0
30
0
70
8
0
VERTEX
8
0
10
-71.259843
20
-71.259843
30
2214.566929
70
32
0
VERTEX
8
0
10
4781.889763
20
-71.259843
30
2214.566929
70
32
0
VERTEX
8
0
10
4781.889763
20
3207.086614
30
2214.566929
70
32
0
VERTEX
8
0
10
-71.259843
20
3207.086614
30
2214.566929
70
32
0
VERTEX
8
0
10
-71.259843
20
-71.259843
30
2214.566929
70
32
0
SEQEND
0
CIRCLE
8
0
10
239.173228
20
239.173228
30
2293.307087
40
62.500000
0
CIRCLE
8
0
10
4471.456693
20
239.173228
30
2293.307087
40
62.500000
0
CIRCLE
8
0
10
4471.456693
20
2896.653543
30
2293.307087
40
62.500000
0
CIRCLE
8
0
10
239.173228
20
2896.653543
30
2293.307087
40
62.500000
0
POLYLINE
8
0
66
1
10
0
20
0
30
0
70
8
0
VERTEX
8
0
10
78.740157
20
517.913386
30
314.96063
70
32
0
VERTEX
8
0
10
78.740157
20
2617.913386
30
314.96063
70
32
0
VERTEX
8
0
10
2618.740157
20
2617.913386
30
314.96063
70
32
0
VERTEX
8
0
10
2678.740157
20
2557.913386
30
314.96063
70
32
0
VERTEX
8
0
10
2678.740157
20
2107.913386
30
314.96063
70
32
0
VERTEX
8
0
10
2778.740157
20
2007.913386
30
314.96063
70
32
0
VERTEX
8
0
10
2778.740157
20
717.913386
30
314.96063
70
32
0
VERTEX
8
0
10
2678.740157
20
617.913386
30
314.96063
70
32
0
VERTEX
8
0
10
2678.740157
20
517.913386
30
314.96063
70
32
0
VERTEX
8
0
10
78.740157
20
517.913386
30
314.96063
70
32
0
SEQEND
0
CIRCLE
8
0
10
628.740157
20
617.913386
30
314.96063
40
62.500000
0
CIRCLE
8
0
10
2678.740157
20
817.913386
30
314.96063
40
62.500000
0
CIRCLE
8
0
10
678.740157
20
2517.913386
30
314.96063
40
62.500000
0
CIRCLE
8
0
10
2678.740157
20
1917.913386
30
314.96063
40
62.500000
0
POLYLINE
8
0
66
1
10
0
20
0
30
0
70
8
0
VERTEX
8
0
10
-171.259843
20
1792.913386
30
384.96063
70
32
0
VERTEX
8
0
10
453.740157
20
1792.913386
30
384.96063
70
32
0
VERTEX
8
0
10
453.740157
20
2292.913386
30
384.96063
70
32
0
VERTEX
8
0
10
-171.259843
20
2292.913386
30
384.96063
70
32
0
VERTEX
8
0
10
-171.259843
20
1792.913386
30
384.96063
70
32
0
SEQEND
0
POLYLINE
8
0
66
1
10
0
20
0
30
0
70
8
0
VERTEX
8
0
10
3.740157
20
642.913386
30
384.96063
70
32
0
VERTEX
8
0
10
528.740157
20
642.913386
30
384.96063
70
32
0
VERTEX
8
0
10
528.740157
20
992.913386
30
384.96063
70
32
0
VERTEX
8
0
10
3.740157
20
992.913386
30
384.96063
70
32
0
VERTEX
8
0
10
3.740157
20
642.913386
30
384.96063
70
32
0
SEQEND
0
POLYLINE
8
0
66
1
10
0
20
0
30
0
70
8
0
VERTEX
8
0
10
1121.740157
20
570.163386
30
384.96063
70
32
0
VERTEX
8
0
10
1935.740157
20
570.163386
30
384.96063
70
32
0
VERTEX
8
0
10
1935.740157
20
665.663386
30
384.96063
70
32
0
VERTEX
8
0
10
1121.740157
20
665.663386
30
384.96063
70
32
0
VERTEX
8
0
10
1121.740157
20
570.163386
30
384.96063
70
32
0
SEQEND
0
POLYLINE
8
0
66
1
10
0
20
0
30
0
70
8
0
VERTEX
8
0
10
2021.740157
20
570.163386
30
384.96063
70
32
0
VERTEX
8
0
10
2635.740157
20
570.163386
30
384.96063
70
32
0
VERTEX
8
0
10
2635.740157
20
665.663386
30
384.96063
70
32
0
VERTEX
8
0
10
2021.740157
20
665.663386
30
384.96063
70
32
0
VERTEX
8
0
10
2021.740157
20
570.163386
30
384.96063
70
32
0
SEQEND
0
POLYLINE
8
0
66
1
10
0
20
0
30
0
70
8
0
VERTEX
8
0
10
762.240157
20
2470.163386
30
384.96063
70
32
0
VERTEX
8
0
10
1769.240157
20
2470.163386
30
384.96063
70
32
0
VERTEX
8
0
10
1769.240157
20
2565.663386
30
384.96063
70
32
0
VERTEX
8
0
10
762.240157
20
2565.663386
30
384.96063
70
32
0
VERTEX
8
0
10
762.240157
20
2470.163386
30
384.96063
70
32
0
SEQEND
0
POLYLINE
8
0
66
1
10
0
20
0
30
0
70
8
0
VERTEX
8
0
10
1829.240157
20
2470.163386
30
384.96063
70
32
0
VERTEX
8
0
10
2643.240157
20
2470.163386
30
384.96063
70
32
0
VERTEX
8
0
10
2643.240157
20
2565.663386
30
384.96063
70
32
0
VERTEX
8
0
10
1829.240157
20
2565.663386
30
384.96063
70
32
0
VERTEX
8
0
10
1829.240157
20
2470.163386
30
384.96063
70
32
0
SEQEND
0
CIRCLE
8
0
10
628.740157
20
617.913386
30
314.96063
40
125.000000
0
CIRCLE
8
0
10
2678.740157
20
817.913386
30
314.96063
40
125.000000
0
CIRCLE
8
0
10
678.740157
20
2517.913386
30
314.96063
40
125.000000
0
CIRCLE
8
0
10
2678.740157
20
1917.913386
30
314.96063
40
125.000000
0
CIRCLE
8
0
10
628.740157
20
617.913386
30
78.740157
40
62.500000
0
CIRCLE
8
0
10
2678.740157
20
817.913386
30
78.740157
40
62.500000
0
CIRCLE
8
0
10
678.740157
20
2517.913386
30
78.740157
40
62.500000
0
CIRCLE
8
0
10
2678.740157
20
1917.913386
30
78.740157
40
62.500000
0
POLYLINE
8
0
66
1
10
0
20
0
30
0
70
8
0
VERTEX
8
0
10
0
20
0
30
0
70
32
0
VERTEX
8
0
10
4710.629921
20
0
30
0
70
32
0
VERTEX
8
0
10
4710.629921
20
3135.826772
30
0
70
32
0
VERTEX
8
0
10
0
20
3135.826772
30
0
70
32
0
VERTEX
8
0
10
0
20
0
30
0
70
32
0
SEQEND
0
POLYLINE
8
0
66
1
10
0
20
0
30
0
70
8
0
VERTEX
8
0
10
0
20
0
30
0
70
32
0
VERTEX
8
0
10
4710.629921
20
0
30
0
70
32
0
VERTEX
8
0
10
4781.889764
20
-71.259843
30
-2214.566929
70
32
0
VERTEX
8
0
10
-71.259843
20
-71.259843
30
-2214.566929
70
32
0
VERTEX
8
0
10
0
20
0
30
0
70
32
0
SEQEND
0
POLYLINE
8
0
66
1
10
0
20
0
30
0
70
8
0
VERTEX
8
0
10
0
20
3135.826772
30
0
70
32
0
VERTEX
8
0
10
4710.629921
20
3135.826772
30
0
70
32
0
VERTEX
8
0
10
4781.889764
20
3207.086614
30
-2214.566929
70
32
0
VERTEX
8
0
10
-71.259843
20
3207.086614
30
-2214.566929
70
32
0
VERTEX
8
0
10
0
20
3135.826772
30
0
70
32
0
SEQEND
0
POLYLINE
8
0
66
1
10
0
20
0
30
0
70
8
0
VERTEX
8
0
10
0
20
0
30
0
70
32
0
VERTEX
8
0
10
-71.259843
20
-71.259843
30
-2214.566929
70
32
0
VERTEX
8
0
10
-71.259843
20
3207.086614
30
-2214.566929
70
32
0
VERTEX
8
0
10
0
20
3135.826772
30
0
70
32
0
VERTEX
8
0
10
0
20
0
30
0
70
32
0
SEQEND
0
POLYLINE
8
0
66
1
10
0
20
0
30
0
70
8
0
VERTEX
8
0
10
4710.629921
20
0
30
0
70
32
0
VERTEX
8
0
10
4781.889764
20
-71.259843
30
-2214.566929
70
32
0
VERTEX
8
0
10
4781.889764
20
3207.086614
30
-2214.566929
70
32
0
VERTEX
8
0
10
4710.629921
20
3135.826772
30
0
70
32
0
VERTEX
8
0
10
4710.629921
20
0
30
0
70
32
0
SEQEND
0
CIRCLE
8
0
10
628.740157
20
617.913386
30
0
40
62.500000
0
CIRCLE
8
0
10
2678.740157
20
817.913386
30
0
40
62.500000
0
CIRCLE
8
0
10
678.740157
20
2517.913386
30
0
40
62.500000
0
CIRCLE
8
0
10
2678.740157
20
1917.913386
30
0
40
62.500000
0
POLYLINE
8
0
66
1
10
0
20
0
30
0
70
8
0
VERTEX
8
0
10
78.740157
20
892.913386
30
2114.566929
70
32
0
VERTEX
8
0
10
2278.740157
20
892.913386
30
2114.566929
70
32
0
VERTEX
8
0
10
2278.740157
20
2242.913386
30
2114.566929
70
32
0
VERTEX
8
0
10
78.740157
20
2242.913386
30
2114.566929
70
32
0
VERTEX
8
0
10
78.740157
20
892.913386
30
2114.566929
70
32
0
SEQEND
0
POLYLINE
8
0
66
1
10
0
20
0
30
0
70
8
0
VERTEX
8
0
10
478.740157
20
992.913386
30
2214.566929
70
32
0
VERTEX
8
0
10
1878.740157
20
992.913386
30
2214.566929
70
32
0
VERTEX
8
0
10
1878.740157
20
2117.913386
30
2214.566929
70
32
0
VERTEX
8
0
10
478.740157
20
2117.913386
30
2214.566929
70
32
0
VERTEX
8
0
10
478.740157
20
992.913386
30
2214.566929
70
32
0
SEQEND
0
CIRCLE
8
0
10
178.740157
20
992.913386
30
2114.566929
40
62.500000
0
CIRCLE
8
0
10
2178.740157
20
992.913386
30
2114.566929
40
62.500000
0
CIRCLE
8
0
10
2178.740157
20
2142.913386
30
2114.566929
40
62.500000
0
CIRCLE
8
0
10
178.740157
20
2142.913386
30
2114.566929
40
62.500000
0
CIRCLE
8
0
10
178.740157
20
992.913386
30
2214.566929
40
62.500000
0
CIRCLE
8
0
10
2178.740157
20
992.913386
30
2214.566929
40
62.500000
0
CIRCLE
8
0
10
2178.740157
20
2142.913386
30
2214.566929
40
62.500000
0
CIRCLE
8
0
10
178.740157
20
2142.913386
30
2214.566929
40
62.500000
0
CIRCLE
8
0
10
3028.740157
20
2317.913386
30
2214.566929
40
145.000000
0
CIRCLE
8
0
10
3028.740157
20
1567.913386
30
2214.566929
40
145.000000
0
CIRCLE
8
0
10
3028.740157
20
817.913386
30
2214.566929
40
145.000000
0
CIRCLE
8
0
10
4001.968504
20
1567.913386
30
2088.582677
40
590.551181
0
POLYLINE
8
0
66
1
10
0
20
0
30
0
70
8
0
VERTEX
8
0
10
3903.543307
20
760.826772
30
2214.566929
70
32
0
VERTEX
8
0
10
4100.393701
20
760.826772
30
2214.566929
70
32
0
VERTEX
8
0
10
4100.393701
20
2375
30
2214.566929
70
32
0
VERTEX
8
0
10
3903.543307
20
2375
30
2214.566929
70
32
0
VERTEX
8
0
10
3903.543307
20
760.826772
30
2214.566929
70
32
0
SEQEND
0
CIRCLE
8
0
10
4001.968504
20
878.937008
30
2214.566929
40
29.527559
0
CIRCLE
8
0
10
4001.968504
20
2256.889764
30
2214.566929
40
29.527559
0
CIRCLE
8
0
10
4001.968504
20
878.937008
30
2214.566929
40
29.527559
0
CIRCLE
8
0
10
4001.968504
20
2256.889764
30
2214.566929
40
29.527559
0
CIRCLE
8
0
10
3528.740157
20
1567.913386
30
78.740157
40
187.500000
0
CIRCLE
8
0
10
3528.740157
20
1567.913386
30
-2214.566929
40
125.000000
0
CIRCLE
8
0
10
1567.913386
20
1107.283465
30
4631.889764
40
125.000000
210
1.000000
220
0.000000
230
0.000000
0
POLYLINE
8
0
66
1
10
0
20
0
30
0
70
8
0
VERTEX
8
0
10
877.440945
20
216.929134
30
-2214.566929
70
32
0
VERTEX
8
0
10
3127.440945
20
216.929134
30
-2214.566929
70
32
0
VERTEX
8
0
10
3127.440945
20
1966.929134
30
-2214.566929
70
32
0
VERTEX
8
0
10
877.440945
20
1966.929134
30
-2214.566929
70
32
0
VERTEX
8
0
10
877.440945
20
216.929134
30
-2214.566929
70
32
0
SEQEND
0
CIRCLE
8
0
10
1062.440945
20
1091.929134
30
-2214.566929
40
95.000000
0
CIRCLE
8
0
10
2942.440945
20
1091.929134
30
-2214.566929
40
95.000000
0
CIRCLE
8
0
10
1062.440945
20
1091.929134
30
-2214.566929
40
95.000000
0
CIRCLE
8
0
10
2942.440945
20
1091.929134
30
-2214.566929
40
95.000000
0
CIRCLE
8
0
10
239.173228
20
239.173228
30
-2214.566929
40
62.500000
0
CIRCLE
8
0
10
4471.456693
20
239.173228
30
-2214.566929
40
62.500000
0
CIRCLE
8
0
10
4471.456693
20
2896.653543
30
-2214.566929
40
62.500000
0
CIRCLE
8
0
10
239.173228
20
2896.653543
30
-2214.566929
40
62.500000
0
POLYLINE
8
0
66
1
10
0
20
0
30
0
70
8
0
VERTEX
8
0
10
-51.259843
20
-171.259843
30
-2214.566929
70
32
0
VERTEX
8
0
10
4673.149606
20
-171.259843
30
-2214.566929
70
32
0
VERTEX
8
0
10
4673.149606
20
4492.834645
30
-2214.566929
70
32
0
VERTEX
8
0
10
-51.259843
20
4492.834645
30
-2214.566929
70
32
0
VERTEX
8
0
10
-51.259843
20
-171.259843
30
-2214.566929
70
32
0
SEQEND
0
POLYLINE
8
0
66
1
10
0
20
0
30
0
70
8
0
VERTEX
8
0
10
-1.259843
20
2159.586614
30
-1666.240157
70
32
0
VERTEX
8
0
10
-1.259843
20
2949.586614
30
-1666.240157
70
32
0
VERTEX
8
0
10
-1.259843
20
2949.586614
30
-586.240157
70
32
0
VERTEX
8
0
10
-1.259843
20
2159.586614
30
-586.240157
70
32
0
VERTEX
8
0
10
-1.259843
20
2159.586614
30
-1666.240157
70
32
0
SEQEND
0
POLYLINE
8
0
66
1
10
0
20
0
30
0
70
8
0
VERTEX
8
0
10
78.740157
20
2114.586614
30
-2111.240157
70
32
0
VERTEX
8
0
10
78.740157
20
2994.586614
30
-2111.240157
70
32
0
VERTEX
8
0
10
78.740157
20
2994.586614
30
-141.240157
70
32
0
VERTEX
8
0
10
78.740157
20
2114.586614
30
-141.240157
70
32
0
VERTEX
8
0
10
78.740157
20
2114.586614
30
-2111.240157
70
32
0
SEQEND
0
CIRCLE
8
0
10
2554.586614
20
-1913.740157
30
78.740157
40
69.000000
210
1.000000
220
0.000000
230
0.000000
0
CIRCLE
8
0
10
2554.586614
20
-338.740157
30
78.740157
40
69.000000
210
1.000000
220
0.000000
230
0.000000
0
POLYLINE
8
0
66
1
10
0
20
0
30
0
70
8
0
VERTEX
8
0
10
0
20
160.925197
30
-1046.751969
70
32
0
VERTEX
8
0
10
0
20
1184.547244
30
-1046.751969
70
32
0
VERTEX
8
0
10
0
20
1184.547244
30
-180.610237
70
32
0
VERTEX
8
0
10
0
20
160.925197
30
-180.610237
70
32
0
VERTEX
8
0
10
0
20
160.925197
30
-1046.751969
70
32
0
SEQEND
0
POLYLINE
8
0
66
1
10
0
20
0
30
0
70
8
0
VERTEX
8
0
10
-141.732283
20
141.240157
30
-1204.232283
70
32
0
VERTEX
8
0
10
-141.732283
20
1204.232283
30
-1204.232283
70
32
0
VERTEX
8
0
10
-141.732283
20
1204.232283
30
-141.240157
70
32
0
VERTEX
8
0
10
-141.732283
20
141.240157
30
-141.240157
70
32
0
VERTEX
8
0
10
-141.732283
20
141.240157
30
-1204.232283
70
32
0
SEQEND
0
POLYLINE
8
0
66
1
10
0
20
0
30
0
70
8
0
VERTEX
8
0
10
0
20
298.720472
30
-1105.807087
70
32
0
VERTEX
8
0
10
0
20
298.720472
30
-879.429134
70
32
0
VERTEX
8
0
10
0
20
160.925197
30
-879.429134
70
32
0
VERTEX
8
0
10
0
20
160.925197
30
-462.106299
70
32
0
VERTEX
8
0
10
0
20
493.602362
30
-462.106299
70
32
0
VERTEX
8
0
10
0
20
493.602362
30
-239.665354
70
32
0
VERTEX
8
0
10
0
20
851.870079
30
-239.665354
70
32
0
VERTEX
8
0
10
0
20
851.870079
30
-462.106299
70
32
0
VERTEX
8
0
10
0
20
1184.547244
30
-462.106299
70
32
0
VERTEX
8
0
10
0
20
1184.547244
30
-879.429134
70
32
0
VERTEX
8
0
10
0
20
1046.751969
30
-879.429134
70
32
0
VERTEX
8
0
10
0
20
1046.751969
30
-1105.807087
70
32
0
VERTEX
8
0
10
0
20
298.720472
30
-1105.807087
70
32
0
SEQEND
0
POLYLINE
8
0
66
1
10
0
20
0
30
0
70
8
0
VERTEX
8
0
10
4710.629921
20
160.925197
30
-1046.751969
70
32
0
VERTEX
8
0
10
4710.629921
20
1184.547244
30
-1046.751969
70
32
0
VERTEX
8
0
10
4710.629921
20
1184.547244
30
-180.610237
70
32
0
VERTEX
8
0
10
4710.629921
20
160.925197
30
-180.610237
70
32
0
VERTEX
8
0
10
4710.629921
20
160.925197
30
-1046.751969
70
32
0
SEQEND
0
POLYLINE
8
0
66
1
10
0
20
0
30
0
70
8
0
VERTEX
8
0
10
4852.362205
20
141.240157
30
-1204.232283
70
32
0
VERTEX
8
0
10
4852.362205
20
1204.232283
30
-1204.232283
70
32
0
VERTEX
8
0
10
4852.362205
20
1204.232283
30
-141.240157
70
32
0
VERTEX
8
0
10
4852.362205
20
141.240157
30
-141.240157
70
32
0
VERTEX
8
0
10
4852.362205
20
141.240157
30
-1204.232283
70
32
0
SEQEND
0
POLYLINE
8
0
66
1
10
0
20
0
30
0
70
8
0
VERTEX
8
0
10
4710.629921
20
298.720472
30
-1105.807087
70
32
0
VERTEX
8
0
10
4710.629921
20
298.720472
30
-879.429134
70
32
0
VERTEX
8
0
10
4710.629921
20
160.925197
30
-879.429134
70
32
0
VERTEX
8
0
10
4710.629921
20
160.925197
30
-462.106299
70
32
0
VERTEX
8
0
10
4710.629921
20
493.602362
30
-462.106299
70
32
0
VERTEX
8
0
10
4710.629921
20
493.602362
30
-239.665354
70
32
0
VERTEX
8
0
10
4710.629921
20
851.870079
30
-239.665354
70
32
0
VERTEX
8
0
10
4710.629921
20
851.870079
30
-462.106299
70
32
0
VERTEX
8
0
10
4710.629921
20
1184.547244
30
-462.106299
70
32
0
VERTEX
8
0
10
4710.629921
20
1184.547244
30
-879.429134
70
32
0
VERTEX
8
0
10
4710.629921
20
1046.751969
30
-879.429134
70
32
0
VERTEX
8
0
10
4710.629921
20
1046.751969
30
-1105.807087
70
32
0
VERTEX
8
0
10
4710.629921
20
298.720472
30
-1105.807087
70
32
0
SEQEND
0
ENDSEC
0
EOF
